Coordinates
version=1
nRows=10
nColumns=40
inDegrees=yes

Units are S.I. units (second, meters, Newtons, ...)
If the header above contains a line with 'inDegrees', this indicates whether rotational values are in degrees (yes) or radians (no).

endheader
time	pelvis_tilt	pelvis_list	pelvis_rotation	pelvis_tx	pelvis_ty	pelvis_tz	hip_flexion_r	hip_adduction_r	hip_rotation_r	knee_angle_r	knee_angle_r_beta	ankle_angle_r	subtalar_angle_r	mtp_angle_r	hip_flexion_l	hip_adduction_l	hip_rotation_l	knee_angle_l	knee_angle_l_beta	ankle_angle_l	subtalar_angle_l	mtp_angle_l	lumbar_extension	lumbar_bending	lumbar_rotation	arm_flex_r	arm_add_r	arm_rot_r	elbow_flex_r	pro_sup_r	wrist_flex_r	wrist_dev_r	arm_flex_l	arm_add_l	arm_rot_l	elbow_flex_l	pro_sup_l	wrist_flex_l	wrist_dev_l
      3.06500000	    -30.70067044	     -2.71509721	     -1.78493969	     -0.48051861	      0.68155002	     -0.94515418	     86.79522259	    -12.59471804	      0.90916051	     92.52083492	      1.61479320	     34.86916307	      0.00000000	      0.00000000	     90.45721894	    -19.80434846	      9.72415706	     91.55923042	      1.59801003	     32.33511539	      0.00000000	      0.00000000	    -19.94701859	      2.16504396	      3.72266900	      7.58379201	    -55.49431608	     69.99533260	     94.65838498	     85.13924102	      0.00000000	      0.00000000	    -18.40645317	    -47.89444346	     36.38646821	     99.22966514	     87.67188001	      0.00000000	      0.00000000
      3.07000000	    -30.56333146	     -2.51322482	     -1.82410166	     -0.48021446	      0.68194751	     -0.94540811	     86.70172045	    -12.64540497	      1.09711584	     92.51863155	      1.61475474	     34.84774521	      0.00000000	      0.00000000	     90.16066295	    -19.80947138	      9.45472291	     91.55202517	      1.59788428	     32.43045017	      0.00000000	      0.00000000	    -20.08951765	      1.94980022	      3.93924208	      7.24506003	    -55.51290699	     69.73702296	     94.64178860	     85.31859325	      0.00000000	      0.00000000	    -17.68230188	    -48.05708042	     37.16270740	     99.12142928	     87.56327189	      0.00000000	      0.00000000
      3.07500000	    -30.54815777	     -2.52017830	     -1.87652658	     -0.48000481	      0.68196797	     -0.94544060	     86.66670159	    -12.60275789	      1.08750981	     92.51906580	      1.61476232	     34.88776497	      0.00000000	      0.00000000	     90.13563038	    -19.87638282	      9.44514945	     91.57855116	      1.59834724	     32.47872527	      0.00000000	      0.00000000	    -20.12680352	      1.93776454	      3.96075736	      7.31051599	    -55.52541895	     69.74580397	     94.62952359	     86.17165075	      0.00000000	      0.00000000	    -17.83931864	    -48.00814850	     36.97494109	     99.15759786	     87.43211599	      0.00000000	      0.00000000
      3.08000000	    -30.55909908	     -2.49662800	     -2.00628765	     -0.47968204	      0.68191209	     -0.94534524	     86.68518072	    -12.49683163	      1.10071756	     92.53559874	      1.61505087	     34.81531965	      0.00000000	      0.00000000	     90.12173206	    -20.04299580	      9.38228099	     91.61880606	      1.59904982	     32.51895049	      0.00000000	      0.00000000	    -20.11325900	      1.87498991	      3.78481186	      8.03609862	    -55.43404266	     70.56741851	     94.49801718	     86.26803006	      0.00000000	      0.00000000	    -18.65147776	    -47.79015364	     36.03285428	     99.22834018	     87.42506595	      0.00000000	      0.00000000
      3.08500000	    -30.64022907	     -2.48369693	     -2.00186680	     -0.47975575	      0.68190653	     -0.94549505	     86.76104405	    -12.51040822	      1.12291200	     92.49306746	      1.61430856	     34.80615862	      0.00000000	      0.00000000	     90.19727784	    -19.99856228	      9.38403724	     91.60847497	      1.59886951	     32.47250690	      0.00000000	      0.00000000	    -20.04741426	      1.87542519	      3.90653927	      7.63141452	    -55.47881933	     70.14021216	     94.59084819	     86.27021762	      0.00000000	      0.00000000	    -18.38572999	    -47.85208243	     36.29562319	     99.20048806	     87.43188363	      0.00000000	      0.00000000
      3.09000000	    -30.68437175	     -2.50735780	     -2.00725034	     -0.47965821	      0.68193400	     -0.94562710	     86.77738616	    -12.52351404	      1.08512544	     92.47100071	      1.61392343	     34.85410706	      0.00000000	      0.00000000	     90.24226065	    -20.00705737	      9.40788857	     91.62698622	      1.59919259	     32.52894695	      0.00000000	      0.00000000	    -20.01323645	      1.90758736	      3.81965864	      7.90513065	    -55.47697768	     70.48241658	     94.59997888	     86.19160450	      0.00000000	      0.00000000	    -18.59992679	    -47.76919923	     36.05161504	     99.19115855	     87.44659907	      0.00000000	      0.00000000
      3.09500000	    -30.73528480	     -2.34392069	     -2.05992968	     -0.47956048	      0.68188938	     -0.94568369	     86.89407168	    -12.51458583	      1.27123673	     92.49227089	      1.61429466	     34.86052038	      0.00000000	      0.00000000	     90.21015380	    -20.04411890	      9.17936834	     91.62380801	      1.59913712	     32.52128853	      0.00000000	      0.00000000	    -20.02859681	      1.68302089	      4.04711294	      6.63224750	    -55.42565017	     68.99643016	     94.63555698	     85.29639222	      0.00000000	      0.00000000	    -18.60800931	    -47.81991823	     35.85213647	     99.37742316	     87.69919625	      0.00000000	      0.00000000
      3.10000000	    -30.79449123	     -2.50331268	     -2.06567571	     -0.47950110	      0.68206950	     -0.94578643	     86.85428451	    -12.48562425	      1.09073366	     92.41168485	      1.61288817	     34.79532711	      0.00000000	      0.00000000	     90.30691044	    -20.04138762	      9.37501043	     91.56431138	      1.59809871	     32.49172518	      0.00000000	      0.00000000	    -19.90747771	      1.88700447	      4.16434581	      7.03864275	    -55.52263901	     69.58600704	     94.63767397	     86.23764646	      0.00000000	      0.00000000	    -18.05523245	    -47.90229157	     36.61784184	     99.16509959	     87.42713654	      0.00000000	      0.00000000
      3.10500000	    -30.72034738	     -2.37876256	     -2.08472889	     -0.47924644	      0.68236847	     -0.94596152	     86.78951688	    -12.52660027	      1.18820789	     92.38988337	      1.61250766	     34.87792357	      0.00000000	      0.00000000	     90.11239041	    -20.05252515	      9.19006217	     91.55947070	      1.59801423	     32.65480852	      0.00000000	      0.00000000	    -19.99806572	      1.74395549	      4.32668119	      6.41925704	    -55.49621901	     68.96369502	     94.62138921	     85.03780534	      0.00000000	      0.00000000	    -17.66500221	    -48.01742219	     37.02458024	     99.11155939	     87.67272885	      0.00000000	      0.00000000
      3.11000000	    -30.78922229	     -2.45704633	     -2.07147755	     -0.47920801	      0.68257462	     -0.94614781	     86.79116030	    -12.51456373	      1.14175225	     92.32208241	      1.61132431	     34.77764706	      0.00000000	      0.00000000	     90.19124369	    -20.00373237	      9.30466803	     91.50072183	      1.59698886	     32.54044678	      0.00000000	      0.00000000	    -19.93551454	      1.84726024	      4.24724415	      6.80702543	    -55.51644258	     69.36080400	     94.61442404	     86.17454852	      0.00000000	      0.00000000	    -17.81005352	    -47.93148131	     36.86039122	     99.07856069	     87.44563122	      0.00000000	      0.00000000
